<?xml version="1.0" encoding="utf-8"?>
<!-- Generator: Adobe Illustrator 24.3.0, SVG Export Plug-In . SVG Version: 6.00 Build 0)  -->
<svg version="1.1" id="Capa_1" xmlns="http://www.w3.org/2000/svg" xmlns:xlink="http://www.w3.org/1999/xlink" x="0px" y="0px"
	 viewBox="0 0 595.28 841.89" style="enable-background:new 0 0 595.28 841.89;" xml:space="preserve">
<style type="text/css">
	.st0{clip-path:url(#SVGID_2_);}
	.st1{fill:#FFFFFF;}
</style>
<g>
	<defs>
		<rect id="SVGID_1_" x="-1051" y="452.89" width="972" height="113"/>
	</defs>
	<clipPath id="SVGID_2_">
		<use xlink:href="#SVGID_1_"  style="overflow:visible;"/>
	</clipPath>
	<g class="st0">
		<path class="st1" d="M-95,552.51c-20.97-25.56-41.94-51.12-62.92-76.69c-0.43,0.12-0.87,0.25-1.3,0.37
			c0.36,24.52-0.77,49.07,1.21,73.71c-1.3,0-4.08,0-6.3,0c0.67-2.78,1.89-5.55,1.93-8.33c0.26-22.15,0.35-44.3,0.31-66.45
			c0-2.28-1.27-4.55-1.96-6.84c5.91-1.51,10.1,0.98,14.3,6.29c16.13,20.36,32.84,40.25,49.35,60.31c0.82,1,1.73,1.93,3.06,3.4
			c0.29-1.46,0.63-2.33,0.62-3.2c-0.15-19.15-0.25-38.31-0.6-57.46c-0.06-3.14-1.22-6.25-1.87-9.42c2.17,0,5.1,0,7.41,0
			c-0.66,3.33-1.89,6.76-1.92,10.21c-0.21,22.98-0.15,45.97-0.18,68.95c0,1.6,0,3.21,0,4.81C-94.25,552.29-94.63,552.4-95,552.51z"
			/>
		<path class="st1" d="M-686.28,468.18c5.93-1.63,10.02,1.45,14.19,6.69c15.95,20.08,32.43,39.74,48.72,59.55
			c1.04,1.26,2.17,2.45,3.86,4.35c0.17-2.2,0.39-3.58,0.37-4.95c-0.25-18.82-0.45-37.63-0.87-56.45c-0.07-3.11-1.16-6.19-1.78-9.26
			c2.14,0,5.13,0,7.58,0c-0.64,3.1-1.83,6.27-1.86,9.45c-0.21,23.47-0.19,46.95-0.24,70.43c0,1.42,0,2.85-1.06,4.76
			c-21.11-25.73-42.22-51.46-63.57-77.48c-2.59,9.5-0.9,69.34,2.11,74.48c-2.87,0-5.54,0-7.59,0c0.49-3.06,1.4-6.2,1.44-9.35
			c0.26-20.81,0.41-41.63,0.38-62.45C-684.61,474.68-685.71,471.39-686.28,468.18z"/>
		<path class="st1" d="M-965.7,514.87c3.43,0,7.06,0,9.96,0c-0.41,5.04-0.54,10.16-1.35,15.17c-0.47,2.91-1.34,6.26-3.21,8.37
			c-13.52,15.22-37.95,18.3-56.32,7.43c-17.1-10.12-24.66-31.32-18.16-50.89c6.32-19.02,25.9-30.99,46.89-28.71
			c8.37,0.91,16.27,3.08,23.48,7.7c4.04,2.58,5.51,5.8,4.38,11.06c-9.1-14.62-22.91-17.5-37.93-15.68
			c-18.14,2.2-29.67,15.98-31.7,36.26c-2.34,23.41,12.46,42.13,34.98,43.75c10.46,0.75,20.1-2.17,28.53-8.56
			c1.01-0.77,2.52-1.96,2.48-2.89C-964.04,530.24-962.3,522.36-965.7,514.87z"/>
		<path class="st1" d="M-187.77,468.13c2.74,0,5.71,0,7.92,0c-0.67,3.26-1.83,6.53-1.92,9.83c-0.35,12.98-0.3,25.97-0.56,38.95
			c-0.08,3.98-0.28,8.03-1.13,11.9c-3.89,17.8-18.33,26.32-38.19,22.75c-16.05-2.88-24.92-13.78-25.1-31.07
			c-0.15-14.65-0.07-29.3-0.33-43.95c-0.05-2.78-1.16-5.54-1.79-8.38c3.35,0,7.41,0,10.64,0c-0.61,2.9-1.71,5.81-1.75,8.74
			c-0.22,14.15-0.08,28.31-0.19,42.46c-0.2,24.63,18.84,31.8,36.65,27.98c10.72-2.3,17.88-11.34,18.27-23.98
			c0.49-16.13-0.03-32.29-0.35-48.43C-185.64,472.65-187.01,470.39-187.77,468.13z"/>
		<path class="st1" d="M-754.5,550.02c0.54-3.31,1.45-6.31,1.47-9.32c0.12-20.98,0.14-41.96-0.01-62.94
			c-0.02-3.11-1.07-6.21-1.7-9.59c9.05,0,19.07,0,29.09,0c3.83,0,7.66,0,11.49,0c6.62,0.01,6.84,0.23,6.97,7.54
			c-12.2-6.82-25.29-5.42-38.72-4.9c0,12.12,0,23.72,0,36.47c10.58-0.56,21.14-1.13,31.77-1.69c0,1.04,0,3.51,0,4.77
			c-10.43-0.57-20.85-1.13-31.73-1.72c0,13.42,0,25.97,0,39.34c15.16-0.48,30.35,1.84,44.44-5.96c-1.36,7.59-1.84,8.01-8.95,8.01
			C-725.17,550.02-739.98,550.02-754.5,550.02z"/>
		<path class="st1" d="M-549.88,535.5c3.26,3.02,6.14,6.28,9.58,8.75c7.32,5.26,15.48,6.92,24.09,3.6
			c13.18-5.07,16-22.16,4.76-30.68c-5.08-3.86-11.37-6.1-17.03-9.22c-4.2-2.32-8.75-4.32-12.29-7.43
			c-10.37-9.1-8.1-25.11,4.21-31.34c8.34-4.22,17-3.98,25.7-1.01c5.32,1.82,8.1,5.3,7.25,11.64c-1.28-1.5-2.33-2.72-3.38-3.95
			c-6.94-8.09-21.07-9.5-29.51-2.94c-6.92,5.38-7.59,16.13-0.79,21.84c3.61,3.03,8.2,4.94,12.47,7.12
			c4.88,2.49,10.12,4.32,14.8,7.13c9.26,5.56,12.94,14.55,10.78,24.77c-1.99,9.41-9.64,16.54-19.77,17.96
			c-7.72,1.09-15.17,0.03-22.44-3.11C-547.37,546.06-550.31,542.05-549.88,535.5z"/>
		<path class="st1" d="M-827.91,549.98c-2.64,0-6.41,0-9.62,0c0.63-2.54,1.74-4.98,1.76-7.44c0.21-23.31,0.24-46.62,0.31-69.92
			c0-0.48-0.18-0.96-0.39-2.01c-10.42-0.54-20.67-0.11-30.21,5.59c0.24-8.04,0.24-8.04,7.76-8.04c17.65,0,35.3,0,52.95,0
			c6.56,0,6.65,0.11,6.99,6.27c-9.69-1.69-19.65-3.44-30.71-5.37C-828.49,497.08-830.02,523.48-827.91,549.98z"/>
		<path class="st1" d="M-863.94,550.17c-4.46,0-9.09,0-14.11,0c3.55-2.69,2.18-5.72,0.69-8.83c-2.3-4.8-4.65-9.59-6.69-14.51
			c-1.19-2.87-2.84-3.9-5.99-3.85c-12.66,0.19-25.33,0.09-37.99,0.08c-1.25,0-2.51-0.14-3.76-0.21c-0.01-0.49-0.02-0.98-0.04-1.47
			c14.64,0,29.28,0,44.97,0c-2.48-5.46-4.35-9.67-6.3-13.84c-4.72-10.1-9.27-20.3-14.34-30.22c-2.16-4.22-1.06-7.1,2.14-10.79
			c1.14,2.16,2.11,3.81,2.92,5.53c10.29,21.83,20.48,43.71,30.89,65.49C-869.51,541.79-866.68,545.67-863.94,550.17z"/>
		<path class="st1" d="M-431.95,520.79c-6.22-13.24-12.01-25.56-17.8-37.88c-0.85-1.81-1.46-3.77-2.56-5.41
			c-2.6-3.89-1.33-7.1,1.8-11.03c1.07,1.91,1.98,3.32,2.69,4.82c10.53,22.26,20.97,44.56,31.61,66.76c1.96,4.09,4.73,7.8,7.23,11.86
			c-4.24,0-8.92,0-12.52,0c-0.13-2.46,0.34-5.27-0.53-7.56c-2.07-5.43-4.93-10.55-7.15-15.93c-1.17-2.82-2.93-3.46-5.76-3.44
			c-12.66,0.13-25.31,0.07-37.97,0.06c-1.29,0-2.57-0.11-3.89-0.8c6.99-2.44,14.28-1.16,21.41-1.4
			C-447.92,520.6-440.43,520.79-431.95,520.79z"/>
		<path class="st1" d="M-324.52,521.4c14.68,0,29.36,0,45.13,0c-2.96-6.42-5.33-11.66-7.77-16.87c-4.23-9.03-8.51-18.04-12.75-27.07
			c-2.3-4.9-2.24-5.27,1.93-10.84c0.99,1.76,1.9,3.18,2.62,4.69c10.73,22.69,21.37,45.43,32.23,68.06c1.8,3.75,4.53,7.06,6.85,10.6
			c-4.18,0-8.9,0-12.65,0c-0.31-2.78-0.03-5.85-1.07-8.39c-2.51-6.14-4.17-14.27-8.93-17.37c-4.73-3.08-12.82-1.07-19.44-1.15
			c-7.49-0.09-14.98,0-22.46-0.03c-1.22,0-2.45-0.16-3.67-0.25C-324.51,522.33-324.52,521.86-324.52,521.4z"/>
		<path class="st1" d="M-350.45,541.75c-2.56,8.26-2.56,8.26-10.06,8.26c-13.15,0-26.29,0-38.9,0c0.44-4.02,1.23-7.96,1.26-11.9
			c0.13-19.99,0.13-39.97-0.02-59.96c-0.03-3.28-1.06-6.55-1.65-9.92c2.93,0,6.84,0,10.27,0c-0.56,3.1-1.63,6.35-1.65,9.59
			c-0.12,22.14-0.02,44.29,0.03,66.44c0,0.98,0.18,1.96,0.34,3.51C-377.12,547.81-363.35,549.54-350.45,541.75z"/>
		<path class="st1" d="M-771.43,549.93c-3.13,0-6.88,0-10.04,0c0.6-2.73,1.65-5.35,1.66-7.98c0.13-21.81,0.14-43.61-0.01-65.42
			c-0.02-2.8-1.11-5.6-1.71-8.41c3.38,0,7.33,0,10.46,0c-0.6,3.27-1.7,6.54-1.73,9.82c-0.17,20.64-0.16,41.29-0.04,61.93
			C-772.82,543.21-771.93,546.53-771.43,549.93z"/>
		<path class="st1" d="M-328.75,549.98c-4.08,0-7.61,0-11.66,0c2-2.14,3.62-3.87,5.47-5.85
			C-333.04,545.92-331.11,547.75-328.75,549.98z"/>
		<path class="st1" d="M-937.86,549.95c-2.32,0-5.79,0-9.87,0c2-2.2,3.6-3.96,5.47-6.02C-940.67,546.11-939.07,548.29-937.86,549.95
			z"/>
		<path class="st1" d="M-482.98,549.99c-2.33,0-5.73,0-9.69,0c2-2.23,3.6-4.02,5.59-6.24
			C-485.56,546.07-484.04,548.37-482.98,549.99z"/>
	</g>
</g>
</svg>
